<svg xmlns="http://www.w3.org/2000/svg" viewBox="0 0 48 48"><g><path fill="#4285F4" d="M24 9.5c3.54 0 6.7 1.23 9.19 3.25l6.86-6.86C36.68 2.7 30.74 0 24 0 14.82 0 6.71 5.08 2.69 12.44l8.01 6.22C12.33 13.13 17.73 9.5 24 9.5z"/><path fill="#34A853" d="M46.1 24.5c0-1.64-.15-3.22-.42-4.74H24v9.04h12.42c-.54 2.9-2.18 5.36-4.64 7.04l7.19 5.6C43.93 37.13 46.1 31.27 46.1 24.5z"/><path fill="#FBBC05" d="M10.7 28.66c-1.04-3.13-1.04-6.5 0-9.63l-8.01-6.22C.7 16.13 0 20.01 0 24c0 3.99.7 7.87 2.69 11.19l8.01-6.22z"/><path fill="#EA4335" d="M24 44c6.74 0 12.68-2.7 17.05-7.44l-7.19-5.6c-2.01 1.35-4.58 2.14-7.86 2.14-6.27 0-11.67-3.63-13.3-8.78l-8.01 6.22C6.71 42.92 14.82 48 24 48z"/><path fill="none" d="M0 0h48v48H0z"/></g></svg> 